<svg width="1920" height="900" viewBox="0 0 1920 900" fill="none" xmlns="http://www.w3.org/2000/svg">
<g clip-path="url(#clip0_96_6821)">
<rect width="1920" height="900" fill="#1C1823"/>
<g clip-path="url(#clip1_96_6821)">
<rect opacity="0.08" x="304" y="198.675" width="592.225" height="184.137" rx="72.3881" transform="rotate(-40 304 198.675)" fill="white"/>
<rect opacity="0.1" x="1467" y="244.384" width="640" height="160" rx="72.3881" transform="rotate(-40 1467 244.384)" fill="white"/>
<rect opacity="0.1" x="805" y="524.646" width="405.493" height="90.4852" rx="35.9648" transform="rotate(-40 805 524.646)" fill="white"/>
<rect opacity="0.2" x="934.497" y="534.27" width="218.265" height="67.8639" rx="27.9593" transform="rotate(-40 934.497 534.27)" fill="white"/>
<circle opacity="0.1" cx="-48.5" cy="13.5" r="124.5" fill="white"/>
<circle opacity="0.1" cx="-48.5" cy="913.5" r="124.5" fill="white"/>
<path opacity="0.15" d="M201 14C201 152.071 89.0712 264 -49 264C-187.071 264 -299 152.071 -299 14C-299 -124.071 -187.071 -236 -49 -236C89.0712 -236 201 -124.071 201 14ZM-230.846 14C-230.846 114.431 -149.431 195.846 -49 195.846C51.4309 195.846 132.846 114.431 132.846 14C132.846 -86.4309 51.4309 -167.846 -49 -167.846C-149.431 -167.846 -230.846 -86.4309 -230.846 14Z" fill="white"/>
<path opacity="0.15" d="M2095 435C2095 522.813 2023.81 594 1936 594C1848.19 594 1777 522.813 1777 435C1777 347.187 1848.19 276 1936 276C2023.81 276 2095 347.187 2095 435ZM1855.39 435C1855.39 479.519 1891.48 515.608 1936 515.608C1980.52 515.608 2016.61 479.519 2016.61 435C2016.61 390.481 1980.52 354.392 1936 354.392C1891.48 354.392 1855.39 390.481 1855.39 435Z" fill="white"/>
<path opacity="0.2" d="M505 559C505 593.794 476.794 622 442 622C407.206 622 379 593.794 379 559C379 524.206 407.206 496 442 496C476.794 496 505 524.206 505 559ZM410.061 559C410.061 576.639 424.361 590.939 442 590.939C459.639 590.939 473.939 576.639 473.939 559C473.939 541.361 459.639 527.061 442 527.061C424.361 527.061 410.061 541.361 410.061 559Z" fill="white"/>
<rect opacity="0.08" x="304" y="1098.68" width="592.225" height="184.137" rx="72.3881" transform="rotate(-40 304 1098.68)" fill="white"/>
<path opacity="0.15" d="M201 914C201 1052.07 89.0712 1164 -49 1164C-187.071 1164 -299 1052.07 -299 914C-299 775.929 -187.071 664 -49 664C89.0712 664 201 775.929 201 914ZM-230.846 914C-230.846 1014.43 -149.431 1095.85 -49 1095.85C51.4309 1095.85 132.846 1014.43 132.846 914C132.846 813.569 51.4309 732.154 -49 732.154C-149.431 732.154 -230.846 813.569 -230.846 914Z" fill="white"/>
<path opacity="0.15" d="M1361.02 0.307648C1361.02 39.9117 1328.91 72.0172 1289.31 72.0172C1249.7 72.0172 1217.6 39.9117 1217.6 0.307648C1217.6 -39.2964 1249.7 -71.4019 1289.31 -71.4019C1328.91 -71.4019 1361.02 -39.2964 1361.02 0.307648ZM1248.26 0.307648C1248.26 22.976 1266.64 41.3523 1289.31 41.3523C1311.98 41.3523 1330.35 22.976 1330.35 0.307648C1330.35 -22.3607 1311.98 -40.737 1289.31 -40.737C1266.64 -40.737 1248.26 -22.3607 1248.26 0.307648Z" fill="white"/>
<path opacity="0.15" d="M1361.02 900.308C1361.02 939.912 1328.91 972.017 1289.31 972.017C1249.7 972.017 1217.6 939.912 1217.6 900.308C1217.6 860.704 1249.7 828.598 1289.31 828.598C1328.91 828.598 1361.02 860.704 1361.02 900.308ZM1248.26 900.308C1248.26 922.976 1266.64 941.352 1289.31 941.352C1311.98 941.352 1330.35 922.976 1330.35 900.308C1330.35 877.639 1311.98 859.263 1289.31 859.263C1266.64 859.263 1248.26 877.639 1248.26 900.308Z" fill="white"/>
<path opacity="0.08" d="M1388.61 0.30748C1388.61 55.1535 1344.15 99.615 1289.31 99.615C1234.46 99.615 1190 55.1535 1190 0.30748C1190 -54.5385 1234.46 -99 1289.31 -99C1344.15 -99 1388.61 -54.5385 1388.61 0.30748ZM1217.07 0.30748C1217.07 40.2016 1249.41 72.5423 1289.31 72.5423C1329.2 72.5423 1361.54 40.2016 1361.54 0.30748C1361.54 -39.5867 1329.2 -71.9273 1289.31 -71.9273C1249.41 -71.9273 1217.07 -39.5867 1217.07 0.30748Z" fill="white"/>
<path opacity="0.08" d="M1388.61 900.307C1388.61 955.153 1344.15 999.615 1289.31 999.615C1234.46 999.615 1190 955.153 1190 900.307C1190 845.461 1234.46 801 1289.31 801C1344.15 801 1388.61 845.461 1388.61 900.307ZM1217.07 900.307C1217.07 940.202 1249.41 972.542 1289.31 972.542C1329.2 972.542 1361.54 940.202 1361.54 900.307C1361.54 860.413 1329.2 828.073 1289.31 828.073C1249.41 828.073 1217.07 860.413 1217.07 900.307Z" fill="white"/>
<rect opacity="0.1" x="1467" y="1144.38" width="640" height="160" rx="72.3881" transform="rotate(-40 1467 1144.38)" fill="white"/>
</g>
</g>
<defs>
<clipPath id="clip0_96_6821">
<rect width="1920" height="900" fill="white"/>
</clipPath>
<clipPath id="clip1_96_6821">
<rect width="1920" height="900" fill="white"/>
</clipPath>
</defs>
</svg>
