<svg width="24" height="24" viewBox="0 0 24 24" fill="none" xmlns="http://www.w3.org/2000/svg">
<path fill-rule="evenodd" clip-rule="evenodd" d="M12 22C16.4183 22 20 18.4183 20 14C20 9.58172 16.4183 6 12 6C7.58172 6 4 9.58172 4 14C4 18.4183 7.58172 22 12 22ZM12 8.00002C11.4477 8.00002 11 8.44774 11 9.00002V13C11 13.5523 11.4477 14 12 14C12.5523 14 13 13.5523 13 13V9.00002C13 8.44774 12.5523 8.00002 12 8.00002Z" fill="white"/>
<rect x="9" y="4" width="2" height="6" rx="1" transform="rotate(-90 9 4)" fill="white"/>
</svg>
