<svg width="24" height="24" viewBox="0 0 24 24" fill="none" xmlns="http://www.w3.org/2000/svg">
<path d="M15 7C15 9.76142 12.7614 12 10 12C7.23858 12 5 9.76142 5 7C5 4.23858 7.23858 2 10 2C12.7614 2 15 4.23858 15 7Z" fill="white"/>
<path d="M10 14C14.7258 14 17.6099 15.4043 17.9632 20.0002C18.0056 20.5509 17.5523 21 17 21H3C2.44772 21 1.99395 20.5501 2.04114 19.9998C2.41328 15.6604 5.29316 14 10 14Z" fill="white"/>
<path d="M22 12H20M20 12H18M20 12L20 10M20 12L20 14" stroke="white" stroke-width="2" stroke-linecap="round"/>
</svg>
