<svg width="396" height="792" viewBox="0 0 396 792" fill="none" xmlns="http://www.w3.org/2000/svg">
<path d="M323.806 792C323.806 792 395.695 792 395.695 720.003V71.997C395.694 0 323.806 0 323.806 0H72.1942C72.1942 0 0.305176 0 0.305176 71.997V720.003C0.306176 792 72.1942 792 72.1942 792H323.806ZM198 762.022C178.159 762.022 162.056 745.918 162.056 726.078C162.056 706.236 178.159 690.134 198 690.134C217.842 690.134 233.944 706.237 233.944 726.078C233.944 745.919 217.842 762.022 198 762.022ZM144.083 43.888C144.083 39.431 146.204 35.944 148.863 35.944H247.135C249.759 35.944 251.916 39.503 251.916 43.888V46.009C251.916 50.466 249.759 53.953 247.135 53.953H148.863C146.239 53.953 144.083 50.394 144.083 46.009V43.888ZM36.2502 89.861H359.75V664.972H36.2502V89.861Z" fill="black"/>
</svg>
