<svg width="16" height="16" viewBox="0 0 16 16" fill="none" xmlns="http://www.w3.org/2000/svg">
<path d="M10.8271 8L15.414 3.41564C15.7892 3.04041 16 2.53149 16 2.00083C16 1.47018 15.7892 0.961261 15.414 0.586031C15.0387 0.210802 14.5298 1.04605e-08 13.9992 0C13.4685 -1.04605e-08 12.9596 0.2108 12.5844 0.58603L8 5.17289L3.41564 0.58603C3.04041 0.2108 2.53149 0 2.00084 0C1.47018 0 0.96126 0.2108 0.586031 0.58603C0.210802 0.961259 0 1.47018 0 2.00083C0 2.53149 0.210802 3.04041 0.586031 3.41564L5.17289 8L0.586031 12.5844C0.210802 12.9596 0 13.4685 0 13.9992C0 14.5298 0.210802 15.0387 0.586031 15.414C0.96126 15.7892 1.47018 16 2.00084 16C2.53149 16 3.04041 15.7892 3.41564 15.414L8 10.8271L12.5844 15.414C12.9596 15.7892 13.4685 16 13.9992 16C14.5298 16 15.0387 15.7892 15.414 15.414C15.7892 15.0387 16 14.5298 16 13.9992C16 13.4685 15.7892 12.9596 15.414 12.5844L10.8271 8Z" fill="#B5B9CA"/>
</svg>
