<svg width="350" height="214" viewBox="0 0 350 214" fill="none" xmlns="http://www.w3.org/2000/svg">
<path fill-rule="evenodd" clip-rule="evenodd" d="M169.338 10.3116H171.217H185.969H187.848C189.083 10.3116 190.092 11.3213 190.092 12.5557C190.092 13.7903 189.083 14.7998 187.848 14.7998H185.969V20.0543C183.767 19.5523 181.476 19.2862 179.122 19.2862L178.746 19.2881L178.593 19.2862C176.05 19.2862 173.58 19.598 171.217 20.1814V14.7998H169.338C168.103 14.7998 167.094 13.7903 167.094 12.5557C167.094 11.3213 168.103 10.3116 169.338 10.3116ZM180.966 24.163C193.365 25.2906 203.237 35.1639 204.364 47.5622H201.563C200.258 47.5622 199.191 48.6293 199.191 49.9343V49.935C199.191 51.2401 200.258 52.3072 201.563 52.3072H204.364C203.237 64.7064 193.364 74.5779 180.966 75.7054V72.9036C180.966 71.5988 179.899 70.5316 178.594 70.5316H178.593C177.288 70.5316 176.221 71.5988 176.221 72.9036V75.7054C163.821 74.5779 153.95 64.7064 152.822 52.3072H155.625C156.93 52.3072 157.997 51.2401 157.997 49.935V49.9343C157.997 48.6293 156.93 47.5622 155.625 47.5622H152.822C153.948 35.1639 163.821 25.2906 176.221 24.163V26.9658C176.221 28.2706 177.288 29.3379 178.593 29.3379H178.594C179.899 29.3379 180.966 28.2706 180.966 26.9658V24.163ZM147.074 58.4569H149.146C152.839 71.2365 164.624 80.5822 178.593 80.5822C192.562 80.5822 204.347 71.2365 208.039 58.4569H209.185C229.201 58.4569 245.577 74.833 245.577 94.8488V104.135V131.241V148.049L220.702 131.241H147.074C127.058 131.241 110.682 114.864 110.682 94.8488C110.682 74.833 127.058 58.4569 147.074 58.4569ZM155.44 23.6209L158.513 26.6943L155.44 29.7676L152.366 26.6943L155.44 23.6209ZM201.745 23.6209L204.818 26.6943L201.745 29.7676L198.672 26.6943L201.745 23.6209Z" fill="#19676B"/>
<path fill-rule="evenodd" clip-rule="evenodd" d="M165.991 6H167.87H182.622H184.501C185.736 6 186.745 7.00951 186.745 8.24388C186.745 9.47848 185.736 10.488 184.501 10.488H182.622V15.7425C180.42 15.2405 178.129 14.9744 175.776 14.9744L175.4 14.9762L175.246 14.9744C172.703 14.9744 170.233 15.2862 167.87 15.8696V10.488H165.991C164.756 10.488 163.747 9.47848 163.747 8.24388C163.747 7.00951 164.756 6 165.991 6ZM177.619 19.8512C190.018 20.9787 199.891 30.852 201.017 43.2503H198.216C196.912 43.2503 195.844 44.3175 195.844 45.6225V45.6234C195.844 46.9285 196.912 47.9956 198.216 47.9956H201.017C199.89 60.3946 190.017 70.2663 177.619 71.3938V68.5917C177.619 67.2869 176.552 66.2198 175.247 66.2198H175.246C173.941 66.2198 172.874 67.2869 172.874 68.5917V71.3938C160.474 70.2663 150.603 60.3946 149.475 47.9956H152.279C153.584 47.9956 154.651 46.9285 154.651 45.6234V45.6225C154.651 44.3175 153.584 43.2503 152.279 43.2503H149.475C150.601 30.852 160.474 20.9787 172.874 19.8512V22.654C172.874 23.959 173.941 25.0261 175.246 25.0261H175.247C176.552 25.0261 177.619 23.959 177.619 22.654V19.8512ZM143.728 54.1451H145.8C149.492 66.9247 161.277 76.2706 175.246 76.2706C189.215 76.2706 201 66.9247 204.693 54.1451H205.839C225.854 54.1451 242.23 70.5214 242.23 90.537V99.8235V126.929V143.737L217.355 126.929H143.728C123.712 126.929 107.336 110.553 107.336 90.537C107.336 70.5214 123.712 54.1451 143.728 54.1451ZM152.093 19.3091L155.166 22.3824L152.093 25.4558L149.02 22.3824L152.093 19.3091ZM198.399 19.3091L201.472 22.3824L198.399 25.4558L195.325 22.3824L198.399 19.3091Z" stroke="#FEFEFE" stroke-width="11.3788" stroke-miterlimit="22.9256" stroke-linecap="round" stroke-linejoin="round"/>
<path fill-rule="evenodd" clip-rule="evenodd" d="M165.991 6H167.87H182.622H184.501C185.736 6 186.745 7.00951 186.745 8.24388C186.745 9.47848 185.736 10.488 184.501 10.488H182.622V15.7425C180.42 15.2405 178.129 14.9744 175.776 14.9744L175.4 14.9762L175.246 14.9744C172.703 14.9744 170.233 15.2862 167.87 15.8696V10.488H165.991C164.756 10.488 163.747 9.47848 163.747 8.24388C163.747 7.00951 164.756 6 165.991 6ZM177.619 19.8512C190.018 20.9787 199.891 30.852 201.017 43.2503H198.216C196.912 43.2503 195.844 44.3175 195.844 45.6225V45.6234C195.844 46.9285 196.912 47.9956 198.216 47.9956H201.017C199.89 60.3946 190.017 70.2663 177.619 71.3938V68.5917C177.619 67.2869 176.552 66.2198 175.247 66.2198H175.246C173.941 66.2198 172.874 67.2869 172.874 68.5917V71.3938C160.474 70.2663 150.603 60.3946 149.475 47.9956H152.279C153.584 47.9956 154.651 46.9285 154.651 45.6234V45.6225C154.651 44.3175 153.584 43.2503 152.279 43.2503H149.475C150.601 30.852 160.474 20.9787 172.874 19.8512V22.654C172.874 23.959 173.941 25.0261 175.246 25.0261H175.247C176.552 25.0261 177.619 23.959 177.619 22.654V19.8512ZM143.728 54.1451H145.8C149.492 66.9247 161.277 76.2706 175.246 76.2706C189.215 76.2706 201 66.9247 204.693 54.1451H205.839C225.854 54.1451 242.23 70.5214 242.23 90.537V99.8235V126.929V143.737L217.355 126.929H143.728C123.712 126.929 107.336 110.553 107.336 90.537C107.336 70.5214 123.712 54.1451 143.728 54.1451ZM152.093 19.3091L155.166 22.3824L152.093 25.4558L149.02 22.3824L152.093 19.3091ZM198.399 19.3091L201.472 22.3824L198.399 25.4558L195.325 22.3824L198.399 19.3091Z" fill="#3DBCC3"/>
<path fill-rule="evenodd" clip-rule="evenodd" d="M112.226 88.9404C112.268 88.3505 112.546 87.832 112.961 87.4726C113.376 87.1124 113.93 86.9104 114.519 86.9515C115.109 86.9925 115.627 87.2715 115.987 87.6858C116.347 88.101 116.549 88.6552 116.508 89.2439C116.457 89.9362 116.437 90.6275 116.446 91.3117C116.455 92.003 116.496 92.6979 116.565 93.3883C116.636 94.0853 116.74 94.792 116.875 95.5072C117.006 96.2123 117.174 96.9365 117.372 97.6743C117.524 98.2458 117.43 98.8275 117.155 99.3031C116.881 99.7785 116.424 100.151 115.852 100.303C115.281 100.454 114.699 100.36 114.224 100.086C113.748 99.8114 113.376 99.3542 113.224 98.7827C113.004 97.9642 112.815 97.1357 112.66 96.3037C112.507 95.4768 112.387 94.6486 112.303 93.8236C112.219 92.9925 112.171 92.1684 112.158 91.3581C112.146 90.5398 112.168 89.7304 112.226 88.9404ZM207.22 108.92C208.419 108.92 209.391 109.893 209.391 111.091C209.391 112.29 208.419 113.262 207.22 113.262C206.022 113.262 205.049 112.29 205.049 111.091C205.049 109.893 206.022 108.92 207.22 108.92ZM205.118 93.1359V92.923C205.118 91.7369 206.081 90.774 207.267 90.774C208.03 90.774 208.722 90.4638 209.222 89.9637C209.721 89.4643 210.031 88.7723 210.031 88.0095C210.031 87.2433 209.723 86.5491 209.227 86.0497C208.727 85.5531 208.033 85.245 207.267 85.245C206.504 85.245 205.812 85.555 205.313 86.0544C204.813 86.5545 204.503 87.2468 204.503 88.0095L204.504 88.1933L204.525 88.368C204.669 89.5448 203.83 90.6175 202.654 90.7612C201.477 90.9046 200.404 90.0661 200.26 88.8891L200.223 88.4457L200.205 88.0095C200.205 86.0591 200.996 84.2922 202.273 83.0147C203.55 81.7381 205.316 80.9471 207.267 80.9471C209.211 80.9471 210.975 81.7381 212.253 83.0147L212.262 83.0238C213.538 84.3013 214.329 86.0654 214.329 88.0095C214.329 89.96 213.538 91.7269 212.262 93.0034C211.475 93.7897 210.502 94.3925 209.416 94.7391V102.002C209.416 103.188 208.453 104.151 207.267 104.151C206.081 104.151 205.118 103.188 205.118 102.002V93.1359ZM195.832 110.833V110.834C195.832 112.139 194.764 113.207 193.46 113.207H137.538C136.234 113.207 135.165 112.139 135.165 110.834V110.833C135.165 109.528 136.233 108.461 137.538 108.461H193.46C194.765 108.461 195.832 109.53 195.832 110.833ZM195.832 83.1978V83.1985C195.832 84.5026 194.764 85.5706 193.46 85.5706H137.538C136.234 85.5706 135.165 84.5035 135.165 83.1985V83.1978C135.165 81.8927 136.233 80.8254 137.538 80.8254H193.46C194.765 80.8254 195.832 81.8944 195.832 83.1978ZM195.832 96.7516V96.7527C195.832 98.0566 194.764 99.1247 193.46 99.1247H137.538C136.234 99.1247 135.165 98.0575 135.165 96.7527V96.7516C135.165 95.4468 136.233 94.3796 137.538 94.3796H193.46C194.765 94.3796 195.832 95.4486 195.832 96.7516ZM134.089 59.3184C134.639 59.1035 135.228 59.1318 135.73 59.3513C136.232 59.5708 136.652 59.9841 136.867 60.5345C137.082 61.0841 137.054 61.6731 136.834 62.175C136.615 62.6772 136.202 63.0977 135.651 63.3128C133.459 64.1686 131.468 65.1928 129.667 66.3707C127.867 67.5466 126.257 68.8763 124.83 70.3412C123.396 71.8125 122.13 73.4338 121.023 75.1851C119.918 76.9382 118.967 78.8273 118.163 80.8356C117.944 81.3824 117.521 81.7929 117.016 82.0087C116.512 82.2228 115.925 82.2475 115.376 82.028C114.829 81.8094 114.418 81.3861 114.202 80.8811C113.989 80.3766 113.964 79.7895 114.183 79.2409C115.088 76.9811 116.162 74.8495 117.419 72.8642C118.676 70.8769 120.119 69.0335 121.758 67.3527C123.403 65.6638 125.245 64.1385 127.294 62.7962C129.34 61.4545 131.602 60.2894 134.089 59.3184Z" fill="#FEFEFE"/>
<path fill-rule="evenodd" clip-rule="evenodd" d="M189.211 31.6577V31.6596C190.134 32.5823 190.134 34.0912 189.211 35.0137L176.518 47.7075C175.596 48.6284 174.085 48.6303 173.163 47.7075L173.162 47.7066C172.24 46.7838 172.24 45.2749 173.162 44.3522L185.856 31.6586C186.778 30.7361 188.288 30.7349 189.211 31.6577Z" fill="#FEFEFE"/>
<path d="M23.163 156.282C30.8151 156.282 36.3182 159.915 39.6758 165.147C39.6742 164.964 39.6751 164.78 39.6786 164.595L39.6789 164.584C39.7111 162.923 39.9714 161.22 40.5062 159.456C40.7486 158.657 41.2319 157.988 41.8656 157.519C42.5091 157.043 43.2875 156.77 44.1123 156.77H67.476C68.3012 156.77 69.0798 157.044 69.7231 157.519C70.0277 157.745 70.2974 158.017 70.5225 158.326C70.6561 158.1 70.8143 157.895 70.9892 157.717C71.5404 157.159 72.3687 156.77 73.2179 156.77H86.8139C94.303 156.77 101.594 160.185 101.594 169.649C101.594 172.084 100.872 174.371 99.6325 176.342C99.2444 176.959 98.8043 177.544 98.3191 178.092C99.1523 178.774 99.9005 179.557 100.543 180.419C101.007 181.04 101.417 181.703 101.768 182.399V160.551C101.768 159.508 102.192 158.562 102.876 157.878C103.561 157.194 104.506 156.77 105.549 156.77H125.681C126.671 156.77 127.572 157.151 128.246 157.774C128.344 157.683 128.447 157.598 128.554 157.519C129.197 157.043 129.976 156.77 130.8 156.77H154.164C154.989 156.77 155.766 157.042 156.411 157.519C156.622 157.675 156.816 157.853 156.99 158.051C157.05 157.982 157.111 157.915 157.176 157.851C157.843 157.184 158.766 156.77 159.784 156.77H167.877C168.883 156.77 169.801 157.183 170.473 157.851L170.491 157.869C171.155 158.54 171.567 159.456 171.567 160.459V167.866C173.179 167.717 174.905 167.89 176.542 168.344C180.807 169.524 183.187 171.942 184.515 175.072C185.704 177.874 185.91 181.04 185.91 184.314C185.91 189.994 184.064 194.006 181.286 196.75C177.826 200.169 173.023 201.425 168.609 201.444L168.496 201.444V201.456C165.694 201.456 162.941 201.013 160.817 200.118C157.966 198.917 156.118 196.916 156.107 194.038V194.026H156.094V194.014H156.107L156.107 179.162C156.099 179.07 156.094 178.976 156.094 178.881V171.913C155.576 172.179 154.998 172.326 154.395 172.326H150.885V196.51C150.885 197.424 150.574 198.274 150.036 198.957C149.505 199.632 148.75 200.131 147.852 200.351C145.974 200.809 144.14 201 142.343 200.979L142.328 200.978C140.549 200.956 138.836 200.729 137.174 200.352C136.265 200.147 135.492 199.646 134.945 198.961C134.848 198.839 134.762 198.712 134.686 198.58C134.298 197.963 134.08 197.247 134.08 196.495V172.326H130.569C129.707 172.326 128.892 172.024 128.232 171.503L128.078 171.375C127.426 171.911 126.591 172.233 125.681 172.233H117.423V172.44H122.337C123.381 172.44 124.326 172.864 125.01 173.548C125.694 174.232 126.118 175.177 126.118 176.221V182.02C126.118 183.063 125.694 184.009 125.01 184.693C124.326 185.377 123.381 185.801 122.337 185.801H117.423V186.008H125.681C126.725 186.008 127.67 186.433 128.354 187.117C129.038 187.801 129.462 188.746 129.462 189.789V197.212C129.462 198.255 129.038 199.201 128.354 199.885C127.67 200.569 126.725 200.993 125.681 200.993H105.549C104.506 200.993 103.561 200.569 102.876 199.885C102.192 199.201 101.768 198.255 101.768 197.212V194.393C100.815 196.202 99.4221 197.576 97.7472 198.608C94.8143 200.415 91.1356 200.993 87.5958 200.993H73.2179C72.7286 200.993 72.2625 200.877 71.8457 200.671C71.5392 200.526 71.2518 200.326 70.9981 200.072C70.4301 199.504 70.0777 198.716 70.0777 197.852V171.488L70.0441 171.514C69.9102 171.62 69.7702 171.712 69.6258 171.791C69.0537 172.133 68.3964 172.326 67.7074 172.326H64.1964V196.51C64.1964 197.422 63.886 198.273 63.3481 198.957C62.817 199.632 62.0615 200.131 61.1639 200.351C59.286 200.809 57.4522 201 55.6555 200.979L55.6408 200.978C53.8608 200.956 52.1478 200.729 50.4859 200.352C49.5874 200.15 48.8188 199.648 48.2688 198.961C47.7132 198.266 47.3918 197.407 47.3918 196.495V172.326H43.8811C43.4701 172.326 43.0699 172.257 42.6918 172.129C43.2784 174.38 43.5718 176.727 43.5718 179.066C43.5718 182.161 43.0587 185.27 42.0321 188.151C39.2919 195.841 33.0048 201.85 23.163 201.85C13.3214 201.85 7.03432 195.841 4.29408 188.151C3.26754 185.27 2.75415 182.161 2.75415 179.066C2.75415 175.972 3.2673 172.862 4.29385 169.982C7.03409 162.291 13.3212 156.282 23.163 156.282ZM211.49 201.203V207.997C211.49 209.681 210.125 211.047 208.441 211.047H200.274C198.589 211.047 197.224 209.681 197.224 207.997V182.167C196.397 181.722 195.661 181.132 195.049 180.431C193.867 179.078 193.153 177.326 193.153 175.42C193.153 173.297 194.031 171.374 195.451 169.98C196.858 168.598 198.792 167.743 200.916 167.743C202.544 167.743 204.062 168.247 205.319 169.106C205.525 169.246 205.723 169.396 205.913 169.555C206.872 168.955 207.877 168.504 208.889 168.185C211.237 167.445 213.648 167.428 215.645 167.89C218.951 168.655 221.66 170.823 223.523 173.867C223.86 174.417 224.169 174.997 224.448 175.602V160.543C224.448 159.5 224.873 158.555 225.557 157.87C226.241 157.186 227.186 156.762 228.23 156.762H236.657C237.701 156.762 238.646 157.186 239.33 157.87C240.014 158.555 240.438 159.5 240.438 160.543V176.14C241.3 174.495 242.4 173.085 243.676 171.915C246.255 169.549 249.473 168.183 252.682 167.781C254.889 167.505 257.122 167.69 259.167 168.321C261.3 168.981 263.222 170.125 264.707 171.743C266.251 173.427 267.311 175.583 267.637 178.19C267.749 179.084 267.805 179.917 267.811 180.693C268.395 180.122 269.042 179.614 269.74 179.182C268.794 178.117 268.289 176.807 268.12 175.51C267.952 174.212 268.129 172.878 268.537 171.823C268.825 171.078 269.244 170.414 269.768 169.903C269.964 169.716 270.186 169.55 270.435 169.415C272.63 168.219 275.832 167.492 279.031 167.492C281.353 167.492 283.754 167.868 285.87 168.715C288.213 169.653 290.199 171.167 291.409 173.387C292.155 174.756 292.579 176.331 292.579 178.126V186.48H292.603C293.458 186.48 294.256 186.776 294.897 187.286C295.028 187.389 295.151 187.501 295.266 187.622C295.629 186.939 296.193 186.218 297.123 185.869C296.276 184.843 295.643 183.756 295.207 182.645C294.388 180.56 294.267 178.409 294.735 176.402C295.198 174.414 296.243 172.58 297.761 171.106C299.725 169.2 302.474 167.903 305.755 167.691C307.697 167.566 310.031 167.524 312.237 167.89C314.848 168.324 317.268 169.326 318.843 171.361C319.35 172.016 319.652 172.767 319.744 173.553C319.836 174.332 319.716 175.127 319.377 175.876L318.061 178.781C317.591 179.818 316.769 180.59 315.797 181.014C316.283 181.356 316.756 181.726 317.206 182.13C317.417 182.32 317.622 182.516 317.819 182.718C318.007 180.7 318.484 178.868 319.195 177.229C320.114 175.109 321.403 173.336 322.952 171.915C325.531 169.549 328.749 168.183 331.958 167.781C334.165 167.505 336.398 167.689 338.443 168.321C340.577 168.981 342.498 170.125 343.983 171.743C345.528 173.427 346.587 175.583 346.913 178.19C347.571 183.447 346.327 186.587 344.048 188.492C344.365 188.816 344.629 189.204 344.82 189.645L344.822 189.65L344.832 189.645C345.282 190.686 345.551 191.785 345.657 192.934C345.757 194.02 345.698 195.126 345.496 196.248C345.386 196.862 345.139 197.418 344.773 197.892C344.395 198.379 343.912 198.765 343.341 199.025L343.168 199.096C339.597 200.693 335.909 201.454 332.502 201.314C329.677 201.198 327.035 200.476 324.782 199.113C322.678 197.841 320.926 196.031 319.685 193.659C319.335 194.55 318.886 195.385 318.353 196.152C317.649 197.164 316.745 198.046 315.698 198.796C313.143 200.624 309.681 201.607 306.29 201.712C302.858 201.817 299.398 201.019 296.9 199.283C296.342 198.894 295.825 198.455 295.359 197.963C294.45 199.591 292.971 200.883 290.653 201.416L290.391 201.47C290.145 201.534 289.886 201.568 289.619 201.568H289.244C287.589 201.568 286.039 201.054 284.748 200.175C284.449 199.97 284.164 199.746 283.895 199.503C283.494 199.839 283.066 200.144 282.614 200.411C281.181 201.261 279.516 201.749 277.749 201.749H276.835C273.442 201.749 270.36 200.364 268.127 198.131C267.427 197.431 266.811 196.648 266.294 195.797C266.272 195.947 266.247 196.098 266.22 196.248C266.108 196.864 265.862 197.42 265.496 197.892C265.124 198.372 264.645 198.754 264.077 199.013C260.448 200.666 256.691 201.457 253.226 201.314C250.401 201.198 247.759 200.476 245.506 199.113C243.419 197.851 241.677 196.059 240.438 193.715V197.011C240.438 198.054 240.014 199 239.33 199.684C238.646 200.368 237.701 200.792 236.657 200.792H228.23C227.186 200.792 226.241 200.368 225.557 199.684C224.873 199 224.448 198.054 224.448 197.011V192.795C223.899 193.966 223.24 195.047 222.489 196.014C219.977 199.247 216.442 201.247 212.479 201.247C212.148 201.247 211.818 201.232 211.49 201.203Z" fill="#FEFEFE"/>
<path fill-rule="evenodd" clip-rule="evenodd" d="M23.1744 159.332C46.3202 159.332 46.3202 198.801 23.1744 198.801C0.0285468 198.801 0.0285468 159.332 23.1744 159.332ZM284.642 195.378C285.371 197.213 287.168 198.519 289.256 198.519C289.381 198.519 289.505 198.519 289.63 198.519C294.108 197.798 293.783 192.394 293.239 190.026C293.171 189.732 292.916 189.53 292.614 189.53C292.024 189.53 291.435 189.53 290.844 189.53C290.138 189.53 289.559 188.962 289.541 188.261V188.227V182.301V178.126C289.541 169.684 276.976 169.316 271.9 172.083C270.754 173.201 270.563 176.973 273.272 178.022C273.519 178.117 273.798 178.052 273.974 177.86C274.849 176.913 281.054 175.96 281.054 178.804V179.959C281.054 180.312 280.767 180.599 280.413 180.599H275.499H275.498C271.137 180.599 267.57 184.166 267.57 188.528V189.424C267.57 194.526 271.743 198.7 276.846 198.7H277.761C280.22 198.7 282.373 197.325 283.487 195.305C283.609 195.082 283.835 194.959 284.088 194.975C284.341 194.991 284.549 195.142 284.642 195.378ZM280.262 185.517H278.084C277.228 185.517 276.528 186.217 276.528 187.074V188.501C276.528 189.705 277.511 190.687 278.714 190.687H278.715C279.919 190.687 280.902 189.705 280.902 188.501V186.157C280.902 185.804 280.615 185.517 280.262 185.517ZM305.957 170.729C309.501 170.5 314.392 170.563 316.448 173.219C316.767 173.632 316.827 174.15 316.613 174.625L315.297 177.53C314.998 178.188 314.247 178.501 313.57 178.25C306.781 175.732 305.221 178.887 310.498 181.466C313.582 183.019 317.567 185.136 317.494 189.214C317.494 191.145 316.89 192.936 315.863 194.413C312.169 199.725 300.587 200.18 297.035 195.215C296.785 194.866 296.617 194.463 296.486 194.045C296.395 193.755 296.398 193.479 296.497 193.191L297.651 189.807C297.771 189.489 298.058 188.585 298.851 188.752C299.27 188.839 299.347 189.01 299.636 189.264C301.055 190.517 303.857 191.241 305.73 191.17C306.358 191.147 306.874 190.719 307.015 190.106C307.155 189.494 306.878 188.884 306.323 188.589C305.183 187.982 304.003 187.363 303.114 186.869C293.692 181.621 297.214 171.294 305.957 170.729ZM342.044 190.848C342.701 192.369 342.825 193.999 342.518 195.712C342.474 195.956 342.327 196.147 342.102 196.249C331.626 201.022 320.232 197.63 320.796 183.91C320.972 179.643 322.599 176.379 325.025 174.154C331.434 168.273 342.83 170.018 343.899 178.559C345.135 188.434 337.209 188.211 330.734 188.571C330.59 188.579 330.468 188.646 330.385 188.765C330.303 188.884 330.28 189.02 330.322 189.159C331.354 192.582 335.909 191.921 341.174 190.435C341.529 190.336 341.898 190.51 342.044 190.848ZM331.372 182.854H333.975C334.881 182.854 335.621 182.113 335.621 181.207V180.541C335.621 179.269 334.581 178.228 333.308 178.228H332.953C331.681 178.228 330.64 179.269 330.64 180.541V182.122C330.64 182.525 330.968 182.854 331.372 182.854ZM262.768 190.848C263.425 192.369 263.549 193.999 263.242 195.712C263.198 195.956 263.051 196.147 262.826 196.249C252.35 201.022 240.956 197.63 241.52 183.91C241.695 179.643 243.323 176.379 245.748 174.154C252.158 168.273 263.554 170.018 264.623 178.559C265.859 188.434 257.932 188.211 251.458 188.571C251.314 188.579 251.192 188.646 251.109 188.765C251.027 188.884 251.004 189.02 251.046 189.159C252.077 192.582 256.633 191.921 261.897 190.435C262.252 190.336 262.622 190.51 262.768 190.848ZM252.095 182.854H254.699C255.604 182.854 256.345 182.113 256.345 181.207V180.541C256.345 179.269 255.304 178.228 254.032 178.228H253.677C252.405 178.228 251.364 179.269 251.364 180.541V182.122C251.364 182.525 251.692 182.854 252.095 182.854ZM228.241 159.812H236.668C237.072 159.812 237.4 160.14 237.4 160.543V197.011C237.4 197.414 237.072 197.743 236.668 197.743H228.241C227.838 197.743 227.509 197.414 227.509 197.011V160.543C227.509 160.14 227.838 159.812 228.241 159.812ZM208.452 197.187V207.997H200.285V180.083C200.285 180.038 200.252 179.999 200.207 179.993C197.945 179.654 196.214 177.734 196.214 175.42C196.214 172.865 198.323 170.793 200.927 170.793C202.954 170.793 204.683 172.051 205.347 173.814C205.359 173.844 205.383 173.865 205.415 173.872C205.447 173.878 205.478 173.867 205.5 173.843C208.263 170.812 212.173 170.207 214.978 170.856C219.954 172.008 223.243 177.627 223.243 184.359C223.243 192.001 218.43 198.197 212.49 198.197C211.062 198.197 209.699 197.838 208.452 197.187ZM209.817 180.31H211.444C215.157 180.31 215.154 190.21 211.444 190.21H209.817C209.566 190.21 209.36 190.005 209.36 189.753V180.768C209.36 180.516 209.566 180.31 209.817 180.31ZM182.872 184.314C182.872 195.121 175.274 198.378 168.608 198.407C163.687 198.427 159.155 196.982 159.155 194.014L159.156 178.881H159.155V160.459C159.155 160.106 159.443 159.819 159.796 159.819H167.889C168.241 159.819 168.529 160.106 168.529 160.459V167.608V170.806C168.529 171.224 168.529 171.64 168.529 172.057C170.32 170.728 173.154 170.557 175.744 171.274C182.196 173.059 182.872 178.414 182.872 184.314ZM168.344 178.776H170.428C171.825 178.776 172.968 180.212 172.968 181.6V187.231C172.968 188.618 171.815 190.046 170.428 190.046H168.344C168.092 190.046 167.887 189.84 167.887 189.588V179.233C167.887 178.982 168.092 178.776 168.344 178.776ZM153.914 159.819H154.175C154.503 159.819 154.78 160.027 154.875 160.337C155.777 163.309 155.75 166.054 155.119 168.715C155.04 169.045 154.75 169.277 154.407 169.277H154.188H148.578C148.175 169.277 147.846 169.604 147.846 170.007V196.51C147.846 196.936 147.563 197.295 147.148 197.397C143.891 198.191 140.816 198.058 137.852 197.386C137.431 197.291 137.141 196.926 137.141 196.495V170.007C137.141 169.604 136.812 169.277 136.409 169.277H130.799H130.58C130.237 169.277 129.947 169.046 129.868 168.715C129.237 166.055 129.211 163.309 130.112 160.337C130.206 160.027 130.484 159.819 130.812 159.819C138.695 159.819 146.03 159.819 153.914 159.819ZM105.561 159.819H125.693C126.096 159.819 126.424 160.147 126.424 160.551V168.452C126.424 168.855 126.096 169.183 125.693 169.183H115.116C114.713 169.183 114.384 169.511 114.384 169.915V174.758C114.384 175.161 114.713 175.489 115.116 175.489H122.348C122.752 175.489 123.08 175.817 123.08 176.221V182.02C123.08 182.424 122.752 182.752 122.348 182.752H115.116C114.713 182.752 114.384 183.08 114.384 183.484V188.327C114.384 188.73 114.713 189.058 115.116 189.058H125.693C126.096 189.058 126.424 189.386 126.424 189.789V197.212C126.424 197.616 126.096 197.944 125.693 197.944H105.561C105.158 197.944 104.829 197.616 104.829 197.212V160.551C104.829 160.147 105.158 159.819 105.561 159.819ZM73.2293 197.943H87.6072C93.7377 197.943 100.12 196.084 100.12 188.162V188.161C100.12 183.803 97.0728 179.823 93.0228 178.648C92.9862 178.638 92.9615 178.608 92.9568 178.569C92.9531 178.531 92.9724 178.496 93.0053 178.479C96.2608 176.739 98.556 173.433 98.556 169.65V169.649C98.556 162.426 92.7693 159.819 86.8253 159.819H73.2293C73.188 159.819 73.1386 159.869 73.1386 159.911V178.356V179.407V197.852C73.1386 197.902 73.1789 197.943 73.2293 197.943ZM83.8551 168.428H85.3283C87.4794 168.428 89.2388 170.202 89.2388 172.371C89.2388 174.541 87.4794 176.315 85.3283 176.315H83.8551C83.452 176.315 83.1236 175.984 83.1236 175.577V169.165C83.1236 168.759 83.452 168.428 83.8551 168.428ZM83.8551 182.231H85.3283C87.4794 182.231 89.2388 184.005 89.2388 186.175C89.2388 188.344 87.4794 190.119 85.3283 190.119H83.8551C83.452 190.119 83.1236 189.787 83.1236 189.381V182.968C83.1236 182.562 83.452 182.231 83.8551 182.231ZM67.2259 159.819H67.4873C67.8146 159.819 68.0929 160.027 68.1869 160.337C69.0895 163.309 69.062 166.054 68.4311 168.715C68.3525 169.045 68.0616 169.277 67.7187 169.277H67.5002H61.89C61.4867 169.277 61.1583 169.604 61.1583 170.007V196.51C61.1583 196.936 60.8749 197.295 60.4606 197.397C57.2035 198.191 54.1281 198.058 51.1644 197.386C50.7426 197.291 50.4527 196.926 50.4527 196.495V170.007C50.4527 169.604 50.1245 169.277 49.7212 169.277H44.1111H43.8925C43.5494 169.277 43.2588 169.046 43.1802 168.715C42.5492 166.055 42.5226 163.309 43.4241 160.337C43.5184 160.027 43.7964 159.819 44.1237 159.819C52.0073 159.819 59.3422 159.819 67.2259 159.819ZM23.1744 170.2C26.6787 170.2 29.5191 174.17 29.5191 179.066C29.5191 183.963 26.6787 187.932 23.1744 187.932C19.6705 187.932 16.8301 183.963 16.8301 179.066C16.8301 174.17 19.6705 170.2 23.1744 170.2Z" stroke="#FEFEFE" stroke-width="11.3788" stroke-miterlimit="22.9256" stroke-linecap="round" stroke-linejoin="round"/>
<path fill-rule="evenodd" clip-rule="evenodd" d="M23.1744 159.332C46.3202 159.332 46.3202 198.801 23.1744 198.801C0.0285468 198.801 0.0285468 159.332 23.1744 159.332ZM284.642 195.378C285.371 197.213 287.168 198.519 289.256 198.519C289.381 198.519 289.505 198.519 289.63 198.519C294.108 197.798 293.783 192.394 293.239 190.026C293.171 189.732 292.916 189.53 292.614 189.53C292.024 189.53 291.435 189.53 290.844 189.53C290.138 189.53 289.559 188.962 289.541 188.261V188.227V182.301V178.126C289.541 169.684 276.976 169.316 271.9 172.083C270.754 173.201 270.563 176.973 273.272 178.022C273.519 178.117 273.798 178.052 273.974 177.86C274.849 176.913 281.054 175.96 281.054 178.804V179.959C281.054 180.312 280.767 180.599 280.413 180.599H275.499H275.498C271.137 180.599 267.57 184.166 267.57 188.528V189.424C267.57 194.526 271.743 198.7 276.846 198.7H277.761C280.22 198.7 282.373 197.325 283.487 195.305C283.609 195.082 283.835 194.959 284.088 194.975C284.341 194.991 284.549 195.142 284.642 195.378ZM280.262 185.517H278.084C277.228 185.517 276.528 186.217 276.528 187.074V188.501C276.528 189.705 277.511 190.687 278.714 190.687H278.715C279.919 190.687 280.902 189.705 280.902 188.501V186.157C280.902 185.804 280.615 185.517 280.262 185.517ZM305.957 170.729C309.501 170.5 314.392 170.563 316.448 173.219C316.767 173.632 316.827 174.15 316.613 174.625L315.297 177.53C314.998 178.188 314.247 178.501 313.57 178.25C306.781 175.732 305.221 178.887 310.498 181.466C313.582 183.019 317.567 185.136 317.494 189.214C317.494 191.145 316.89 192.936 315.863 194.413C312.169 199.725 300.587 200.18 297.035 195.215C296.785 194.866 296.617 194.463 296.486 194.045C296.395 193.755 296.398 193.479 296.497 193.191L297.651 189.807C297.771 189.489 298.058 188.585 298.851 188.752C299.27 188.839 299.347 189.01 299.636 189.264C301.055 190.517 303.857 191.241 305.73 191.17C306.358 191.147 306.874 190.719 307.015 190.106C307.155 189.494 306.878 188.884 306.323 188.589C305.183 187.982 304.003 187.363 303.114 186.869C293.692 181.621 297.214 171.294 305.957 170.729ZM342.044 190.848C342.701 192.369 342.825 193.999 342.518 195.712C342.474 195.956 342.327 196.147 342.102 196.249C331.626 201.022 320.232 197.63 320.796 183.91C320.972 179.643 322.599 176.379 325.025 174.154C331.434 168.273 342.83 170.018 343.899 178.559C345.135 188.434 337.209 188.211 330.734 188.571C330.59 188.579 330.468 188.646 330.385 188.765C330.303 188.884 330.28 189.02 330.322 189.159C331.354 192.582 335.909 191.921 341.174 190.435C341.529 190.336 341.898 190.51 342.044 190.848ZM331.372 182.854H333.975C334.881 182.854 335.621 182.113 335.621 181.207V180.541C335.621 179.269 334.581 178.228 333.308 178.228H332.953C331.681 178.228 330.64 179.269 330.64 180.541V182.122C330.64 182.525 330.968 182.854 331.372 182.854ZM262.768 190.848C263.425 192.369 263.549 193.999 263.242 195.712C263.198 195.956 263.051 196.147 262.826 196.249C252.35 201.022 240.956 197.63 241.52 183.91C241.695 179.643 243.323 176.379 245.748 174.154C252.158 168.273 263.554 170.018 264.623 178.559C265.859 188.434 257.932 188.211 251.458 188.571C251.314 188.579 251.192 188.646 251.109 188.765C251.027 188.884 251.004 189.02 251.046 189.159C252.077 192.582 256.633 191.921 261.897 190.435C262.252 190.336 262.622 190.51 262.768 190.848ZM252.096 182.854H254.699C255.604 182.854 256.345 182.113 256.345 181.207V180.541C256.345 179.269 255.304 178.228 254.032 178.228H253.677C252.405 178.228 251.364 179.269 251.364 180.541V182.122C251.364 182.525 251.692 182.854 252.096 182.854ZM228.241 159.812H236.668C237.072 159.812 237.4 160.14 237.4 160.543V197.011C237.4 197.414 237.072 197.743 236.668 197.743H228.241C227.838 197.743 227.509 197.414 227.509 197.011V160.543C227.509 160.14 227.838 159.812 228.241 159.812ZM208.452 197.187V207.997H200.285V180.083C200.285 180.038 200.252 179.999 200.207 179.993C197.945 179.654 196.214 177.734 196.214 175.42C196.214 172.865 198.323 170.793 200.927 170.793C202.954 170.793 204.683 172.051 205.347 173.814C205.359 173.844 205.383 173.865 205.415 173.872C205.447 173.878 205.478 173.867 205.5 173.843C208.263 170.812 212.173 170.207 214.978 170.856C219.954 172.008 223.243 177.627 223.243 184.359C223.243 192.001 218.43 198.197 212.49 198.197C211.062 198.197 209.699 197.838 208.452 197.187ZM209.817 180.31H211.444C215.157 180.31 215.154 190.21 211.444 190.21H209.817C209.566 190.21 209.36 190.005 209.36 189.753V180.768C209.36 180.516 209.566 180.31 209.817 180.31ZM182.872 184.314C182.872 195.121 175.274 198.378 168.608 198.407C163.687 198.427 159.155 196.982 159.155 194.014L159.156 178.881H159.155V160.459C159.155 160.106 159.443 159.819 159.796 159.819H167.889C168.241 159.819 168.529 160.106 168.529 160.459V167.608V170.806C168.529 171.224 168.529 171.64 168.529 172.057C170.32 170.728 173.154 170.557 175.744 171.274C182.196 173.059 182.872 178.414 182.872 184.314ZM168.344 178.776H170.428C171.825 178.776 172.968 180.212 172.968 181.6V187.231C172.968 188.618 171.815 190.046 170.428 190.046H168.344C168.092 190.046 167.887 189.84 167.887 189.588V179.233C167.887 178.982 168.092 178.776 168.344 178.776ZM153.914 159.819H154.175C154.503 159.819 154.78 160.027 154.875 160.337C155.777 163.309 155.75 166.054 155.119 168.715C155.04 169.045 154.75 169.277 154.407 169.277H154.188H148.578C148.175 169.277 147.846 169.604 147.846 170.007V196.51C147.846 196.936 147.563 197.295 147.148 197.397C143.891 198.191 140.816 198.058 137.852 197.386C137.431 197.291 137.141 196.926 137.141 196.495V170.007C137.141 169.604 136.812 169.277 136.409 169.277H130.799H130.58C130.237 169.277 129.947 169.046 129.868 168.715C129.237 166.055 129.211 163.309 130.112 160.337C130.206 160.027 130.484 159.819 130.812 159.819C138.695 159.819 146.03 159.819 153.914 159.819ZM105.561 159.819H125.693C126.096 159.819 126.424 160.147 126.424 160.551V168.452C126.424 168.855 126.096 169.183 125.693 169.183H115.116C114.713 169.183 114.384 169.511 114.384 169.915V174.758C114.384 175.161 114.713 175.489 115.116 175.489H122.348C122.752 175.489 123.08 175.817 123.08 176.221V182.02C123.08 182.424 122.752 182.752 122.348 182.752H115.116C114.713 182.752 114.384 183.08 114.384 183.484V188.327C114.384 188.73 114.713 189.058 115.116 189.058H125.693C126.096 189.058 126.424 189.386 126.424 189.789V197.212C126.424 197.616 126.096 197.944 125.693 197.944H105.561C105.158 197.944 104.829 197.616 104.829 197.212V160.551C104.829 160.147 105.158 159.819 105.561 159.819ZM73.2293 197.943H87.6072C93.7377 197.943 100.12 196.084 100.12 188.162V188.161C100.12 183.803 97.0728 179.823 93.0228 178.648C92.9862 178.638 92.9615 178.608 92.9568 178.569C92.9531 178.531 92.9724 178.496 93.0053 178.479C96.2608 176.739 98.556 173.433 98.556 169.65V169.649C98.556 162.426 92.7693 159.819 86.8253 159.819H73.2293C73.188 159.819 73.1386 159.869 73.1386 159.911V178.356V179.407V197.852C73.1386 197.902 73.1789 197.943 73.2293 197.943ZM83.8551 168.428H85.3283C87.4794 168.428 89.2388 170.202 89.2388 172.371C89.2388 174.541 87.4794 176.315 85.3283 176.315H83.8551C83.452 176.315 83.1236 175.984 83.1236 175.577V169.165C83.1236 168.759 83.452 168.428 83.8551 168.428ZM83.8551 182.231H85.3283C87.4794 182.231 89.2388 184.005 89.2388 186.175C89.2388 188.344 87.4794 190.119 85.3283 190.119H83.8551C83.452 190.119 83.1236 189.787 83.1236 189.381V182.968C83.1236 182.562 83.452 182.231 83.8551 182.231ZM67.2259 159.819H67.4873C67.8146 159.819 68.0929 160.027 68.1869 160.337C69.0895 163.309 69.062 166.054 68.4311 168.715C68.3525 169.045 68.0616 169.277 67.7187 169.277H67.5002H61.89C61.4867 169.277 61.1583 169.604 61.1583 170.007V196.51C61.1583 196.936 60.8749 197.295 60.4606 197.397C57.2035 198.191 54.1281 198.058 51.1644 197.386C50.7426 197.291 50.4527 196.926 50.4527 196.495V170.007C50.4527 169.604 50.1245 169.277 49.7212 169.277H44.1111H43.8925C43.5494 169.277 43.2588 169.046 43.1802 168.715C42.5492 166.055 42.5226 163.309 43.4241 160.337C43.5184 160.027 43.7964 159.819 44.1237 159.819C52.0073 159.819 59.3422 159.819 67.2259 159.819ZM23.1744 170.2C26.6787 170.2 29.5191 174.17 29.5191 179.066C29.5191 183.963 26.6787 187.932 23.1744 187.932C19.6705 187.932 16.8301 183.963 16.8301 179.066C16.8301 174.17 19.6705 170.2 23.1744 170.2Z" fill="#EE941C"/>
</svg>
