<svg width="26" height="27" viewBox="0 0 26 27" fill="none" xmlns="http://www.w3.org/2000/svg">
<path fill-rule="evenodd" clip-rule="evenodd" d="M26 11.7718V11.7911V11.9703C25.997 12.2802 25.9637 12.5204 25.6761 12.8444C25.4721 13.0743 25.1956 13.2687 24.9237 13.4123L24.8413 13.4569C24.7263 13.519 24.633 13.5528 24.5144 13.6124C24.2809 13.7298 24.0488 13.8049 23.8129 13.9011L21.8945 14.4202C21.8171 14.4371 21.8271 14.4454 21.7103 14.4645C21.5909 14.4841 21.6207 14.4976 21.5047 14.5128C21.1987 14.5529 20.9324 14.6155 20.6172 14.6155C20.632 14.7942 20.8381 15.0503 20.9301 15.2167L21.2691 15.7917C21.3316 15.8967 21.3866 15.968 21.4501 16.0677C21.485 16.1224 21.5003 16.1538 21.5385 16.2079L22.2019 17.1695C22.2365 17.2231 22.2561 17.2658 22.2893 17.3106L22.8806 18.1158C22.9212 18.1747 22.9239 18.1935 22.9723 18.2526C23.0493 18.3469 23.0893 18.4264 23.1639 18.5181L23.4216 18.8698C23.4293 18.8796 23.4528 18.9091 23.4552 18.9123C23.4959 18.9668 23.5247 19.0089 23.5625 19.0589C23.7564 19.3158 24.0534 19.7207 24.2212 19.9998C24.2588 20.0623 24.2725 20.0768 24.3126 20.1369L24.8864 21.0358C25.0409 21.2611 25.3327 21.7877 25.419 22.0266C25.4256 22.0451 25.4353 22.0767 25.4462 22.101L25.6287 22.5279C25.7094 22.769 25.7917 22.9636 25.8456 23.225C25.9541 23.7513 25.9897 23.9102 26 24.1464V25.1019C26 25.1686 25.937 25.4133 25.9118 25.4707C25.8096 25.703 25.6806 25.8513 25.4466 25.9703C25.3512 26.0188 25.2119 26.0667 25.0605 26.0667H17.1133C17.0251 26.0667 16.958 26.0317 16.8736 26.0017C16.6367 25.9175 16.4853 25.7642 16.3198 25.5907C16.2708 25.5394 16.2253 25.4836 16.187 25.4188C16.1677 25.386 16.1523 25.3541 16.1335 25.32C16.1066 25.2712 16.0935 25.2464 16.0723 25.2034C15.9442 24.9444 15.7406 24.5963 15.6442 24.3366L15.5479 24.1282C15.5253 24.0833 15.5221 24.0671 15.5003 24.0234L14.2228 21.5939C14.0157 21.2028 13.3547 20.1343 13 19.8968C12.8575 19.9922 12.5069 20.4007 12.4076 20.574L12.2892 20.7603C12.0579 21.0831 11.8806 21.4255 11.6695 21.7655L10.3507 24.3315C10.2774 24.4887 10.2163 24.6264 10.1393 24.7803C10.1004 24.8581 10.0777 24.9062 10.038 24.9837C10.0157 25.0272 10.004 25.0446 9.98373 25.0817C9.77321 25.4678 9.5922 25.8432 9.10368 26.0044C9.02193 26.0314 8.92126 26.0667 8.83591 26.0667H0.939438C0.669209 26.0667 0.390282 25.9337 0.227201 25.738C0.208668 25.7157 0.189928 25.6936 0.173344 25.6648C0.0888958 25.5182 -2.28882e-05 25.3126 -2.28882e-05 25.1273V24.0274C0.00663376 23.9458 0.0164433 23.8725 0.0306282 23.8122C0.117626 23.4427 0.136906 23.1312 0.297676 22.7082L0.565865 22.0623C0.593994 21.9969 0.60671 21.9585 0.634359 21.9023C0.882967 21.3971 1.18193 20.9108 1.47378 20.4311C1.52797 20.3421 1.61698 20.2386 1.67422 20.1492L4.43216 16.2293C4.43647 16.2232 4.4497 16.2065 4.45408 16.2005C4.45723 16.1962 4.46188 16.1904 4.46499 16.186L4.9728 15.3735C5.07254 15.2303 5.37099 14.7575 5.3828 14.6155C4.85341 14.6155 4.2405 14.4643 3.72607 14.3426L2.20503 13.9086L0.546015 13.0539C0.388363 12.9183 0.248344 12.7799 0.143982 12.5926C0.04319 12.4117 0.00969315 12.2744 -2.28882e-05 12.1279V11.721C-2.28882e-05 11.5174 0.28673 10.9028 0.39583 10.7458L0.702648 10.3416C0.83202 10.1713 0.99231 10.0194 1.15032 9.87523C1.16981 9.85744 1.18541 9.84407 1.20313 9.82652C1.23414 9.79585 1.23186 9.79309 1.26638 9.7628L1.65012 9.43559C3.17712 8.34825 4.51498 7.5883 6.2425 6.69007L8.63279 5.44952C8.63279 -0.978239 16.5225 -2.55233 17.343 5.29766C17.3669 5.52696 17.4058 5.47966 17.7119 5.63797C20.093 6.88386 22.28 7.96862 24.4788 9.56058C24.6509 9.70879 24.8198 9.86356 24.9894 10.0148C24.9929 10.0187 24.9976 10.0246 25.001 10.0286L25.3942 10.4733C25.6261 10.7621 25.8256 11.1086 25.9243 11.4666C25.9478 11.5518 26 11.6819 26 11.7718Z" fill="#C6C6C5"/>
</svg>
