<svg width="24" height="24" viewBox="0 0 24 24" fill="none" xmlns="http://www.w3.org/2000/svg">
<path fill-rule="evenodd" clip-rule="evenodd" d="M1.52296 10.9476C7.46983 8.34222 11.4353 6.62462 13.4195 5.79476C19.0846 3.42533 20.2618 3.01374 21.0291 3.00014C21.1978 2.99716 21.5751 3.03921 21.8196 3.23863C22.0259 3.40702 22.0827 3.63449 22.1099 3.79415C22.1371 3.9538 22.1709 4.31749 22.144 4.60167C21.837 7.84523 20.5086 15.7165 19.8328 19.3493C19.5469 20.8865 18.9838 21.4019 18.4387 21.4524C17.2541 21.562 16.3545 20.6652 15.2071 19.9089C13.4117 18.7254 12.3974 17.9887 10.6547 16.8338C8.64059 15.4992 9.94623 14.7657 11.094 13.5669C11.3944 13.2532 16.614 8.47924 16.715 8.04617C16.7276 7.99201 16.7393 7.79011 16.6201 7.6835C16.5008 7.5769 16.3247 7.61335 16.1977 7.64235C16.0176 7.68344 13.1494 9.58976 7.59308 13.3613C6.77895 13.9234 6.04153 14.1973 5.38084 14.183C4.65247 14.1672 3.25138 13.7689 2.20982 13.4284C0.9323 13.0108 -0.083047 12.7901 0.00536698 12.0809C0.0514184 11.7115 0.557283 11.3337 1.52296 10.9476Z" fill="#1C1823"/>
</svg>
