<svg width="24" height="24" viewBox="0 0 24 24" fill="none" xmlns="http://www.w3.org/2000/svg">
<path d="M23.4917 6.20321C23.3524 5.70501 23.0867 5.25124 22.7205 4.88583C22.3543 4.52042 21.9 4.25575 21.4015 4.11746C19.5302 3.61721 12.0077 3.61721 12.0077 3.61721C12.0077 3.61721 4.49949 3.60521 2.60874 4.11746C2.11104 4.25636 1.65758 4.5213 1.29221 4.88668C0.926831 5.25206 0.661888 5.70551 0.522988 6.20321C0.167638 8.11888 -0.00737728 10.0636 0.000238187 12.012C-0.00322913 13.9509 0.171759 15.8861 0.522988 17.793C0.662338 18.2909 0.927359 18.7447 1.29261 19.1108C1.65786 19.4768 2.11107 19.7428 2.60874 19.8832C4.47999 20.3835 12.0077 20.3835 12.0077 20.3835C12.0077 20.3835 19.5115 20.3835 21.4015 19.8832C21.9 19.7434 22.3541 19.4777 22.7201 19.1116C23.0862 18.7455 23.3519 18.2914 23.4917 17.793C23.836 15.8872 24.004 13.9492 23.992 12.012C24.004 10.062 23.8397 8.12096 23.4917 6.20321ZM9.60474 15.6022V8.40596L15.8665 12.012L9.60474 15.6022Z" fill="#FFA024"/>
</svg>
