<svg width="240" height="127" viewBox="0 0 240 127" fill="none" xmlns="http://www.w3.org/2000/svg">
<path fill-rule="evenodd" clip-rule="evenodd" d="M13.6524 101.135C17.0057 101.135 19.4008 103.53 19.4008 106.883V111.673C19.4008 115.026 17.0057 117.421 13.6524 117.421H10.5388V101.135H13.6524ZM30.1791 106.883C30.1791 98.7402 23.9519 92.5134 13.6524 92.5134H5.26928C1.91577 92.5134 0 94.4295 0 97.3026V121.253C0 124.126 1.91577 126.042 5.26928 126.042H13.6524C23.9519 126.042 30.1791 119.816 30.1791 111.673V106.883Z" fill="white"/>
<path fill-rule="evenodd" clip-rule="evenodd" d="M45.7481 96.8236C45.7481 93.9503 43.8316 92.0334 40.4783 92.0334C37.125 92.0334 35.209 93.9503 35.209 96.8236V121.731C35.209 124.605 37.1248 126.521 40.4783 126.521C43.8316 126.521 45.7481 124.605 45.7481 121.731V96.8236Z" fill="white"/>
<path fill-rule="evenodd" clip-rule="evenodd" d="M50.7793 112.63C50.7793 120.773 57.0067 127 66.8269 127C75.6896 127 80.4798 122.21 80.4798 118.857C80.4798 116.223 78.8034 114.546 75.2105 114.546C71.3779 114.546 70.8991 117.899 66.8269 117.899C63.7135 117.899 61.5576 115.744 61.5576 112.63V105.924C61.5576 102.811 63.7135 100.656 66.8269 100.656C70.4198 100.656 70.8991 104.008 74.7312 104.008C78.3241 104.008 80.001 102.332 80.001 99.6977C80.001 96.3451 75.2105 91.5549 66.8269 91.5549C57.0067 91.5549 50.7793 97.7817 50.7793 105.924V112.63Z" fill="white"/>
<path fill-rule="evenodd" clip-rule="evenodd" d="M107.545 102.094C110.898 102.094 112.813 100.177 112.813 97.3026C112.813 94.4295 110.898 92.5134 107.545 92.5134H89.3406C85.9873 92.5134 84.0713 94.4295 84.0713 97.3026V121.253C84.0713 124.126 85.9873 126.042 89.3406 126.042H108.023C111.376 126.042 113.293 124.126 113.293 121.253C113.293 118.379 111.376 116.463 108.023 116.463H94.6101V113.588H103.711C106.587 113.588 108.503 111.673 108.503 109.278C108.503 106.883 106.587 104.967 103.711 104.967H94.6101V102.094H107.545Z" fill="white"/>
<path fill-rule="evenodd" clip-rule="evenodd" d="M145.226 23.08C141.29 23.08 138.096 19.8861 138.096 15.9502C138.096 12.0115 141.29 8.82008 145.226 8.82008H145.227C149.166 8.82008 152.36 12.0115 152.36 15.9502C152.36 19.8848 149.165 23.08 145.226 23.08ZM145.226 64.9437C141.29 64.9437 138.096 61.7518 138.096 57.8134C138.096 53.8775 141.29 50.6838 145.226 50.6838H145.227C149.166 50.6838 152.36 53.8775 152.36 57.8134C152.36 61.7515 149.165 64.9437 145.226 64.9437ZM124.292 44.011C120.358 44.011 117.162 40.8203 117.162 36.8811C117.162 32.9468 120.356 29.752 124.292 29.752C128.23 29.752 131.422 32.9468 131.422 36.8811C131.422 40.8203 128.23 44.011 124.292 44.011ZM145.35 0.000511452L75.2205 0C72.3486 0 70.43 1.91555 70.43 5.26868C70.43 8.6213 72.3458 10.5376 75.2205 10.5376H105.698C108.571 10.5376 110.488 12.4532 110.488 15.8061C110.488 19.1592 108.571 21.0756 105.698 21.0756H77.5985C74.733 21.0756 72.808 22.9911 72.808 26.344C72.808 29.6969 74.7238 31.6132 77.5985 31.6132H88.8579C91.7231 31.6132 93.6486 33.5288 93.6486 36.8816C93.6486 40.2348 91.7321 42.1508 88.8579 42.1508H80.5595C77.6882 42.1508 75.7691 44.0667 75.7691 47.4193C75.7691 50.4674 77.3519 52.3285 79.7997 52.6412L105.698 52.5449C108.571 52.5347 110.488 54.4605 110.488 57.8134C110.488 61.1662 108.571 63.0716 105.698 63.0826L68.8518 63.2264C65.9817 63.2264 64.0615 65.142 64.0615 68.4948C64.0615 71.848 65.9773 73.764 68.8518 73.764H145.35C154.056 73.764 161.179 66.6421 161.179 57.9368V15.8281C161.179 7.12294 154.056 0.000511452 145.35 0.000511452Z" fill="white"/>
<path fill-rule="evenodd" clip-rule="evenodd" d="M140.358 102.094C143.711 102.094 145.628 100.177 145.628 97.3026C145.628 94.4295 143.711 92.5134 140.358 92.5134H122.154C118.801 92.5134 116.885 94.4295 116.885 97.3026V121.732C116.885 124.606 118.801 126.522 122.154 126.522C125.507 126.522 127.424 124.606 127.424 121.732V115.505H134.609C137.962 115.505 139.879 113.588 139.879 110.715C139.879 107.84 137.962 105.925 134.609 105.925H127.424V102.094H140.358Z" fill="white"/>
<path fill-rule="evenodd" clip-rule="evenodd" d="M172.215 102.094C175.569 102.094 177.485 100.177 177.485 97.3026C177.485 94.4295 175.569 92.5134 172.215 92.5134H154.011C150.658 92.5134 148.742 94.4295 148.742 97.3026V121.253C148.742 124.126 150.658 126.042 154.011 126.042H172.694C176.047 126.042 177.964 124.126 177.964 121.253C177.964 118.379 176.047 116.463 172.694 116.463H159.281V113.588H168.383C171.257 113.588 173.174 111.673 173.174 109.278C173.174 106.883 171.257 104.967 168.383 104.967H159.281V102.094H172.215Z" fill="white"/>
<path fill-rule="evenodd" clip-rule="evenodd" d="M197.604 115.505C197.604 116.702 196.406 117.899 192.813 117.899C188.742 117.899 188.262 114.547 184.431 114.547C180.838 114.547 179.161 116.224 179.161 118.857C179.161 122.211 183.952 127 192.813 127C203.352 127 208.622 121.732 208.622 115.505C208.622 104.488 190.898 105.925 190.898 102.572C190.898 101.614 191.855 100.656 194.251 100.656C197.844 100.656 198.323 104.009 202.155 104.009C205.748 104.009 207.424 102.333 207.424 99.6982C207.425 96.3456 202.635 91.5554 194.251 91.5554C184.67 91.5554 179.88 96.3456 179.88 102.572C179.88 114.068 197.604 112.63 197.604 115.505Z" fill="white"/>
<path fill-rule="evenodd" clip-rule="evenodd" d="M218.922 102.094V121.732C218.922 124.606 220.838 126.522 224.192 126.522C227.544 126.522 229.461 124.606 229.461 121.732L229.461 102.094H234.731C238.084 102.094 240 100.177 240 97.3026C240 94.4295 238.084 92.5134 234.731 92.5134H213.653C210.299 92.5134 208.383 94.4295 208.383 97.3026C208.383 100.177 210.299 102.094 213.653 102.094H218.922Z" fill="white"/>
<path fill-rule="evenodd" clip-rule="evenodd" d="M73.5721 47.4188C73.5721 44.0662 71.6492 42.1504 68.7816 42.1504H54.5786C51.7105 42.1504 49.7881 44.0662 49.7881 47.4188C49.7881 50.772 51.7041 52.6883 54.5786 52.6883L69.0816 52.6811C71.7884 52.5511 73.5721 50.6539 73.5721 47.4188Z" fill="white"/>
<path fill-rule="evenodd" clip-rule="evenodd" d="M66.2123 26.3441C66.2123 22.9912 64.2765 21.0757 61.4218 21.0757H48.5522C45.6969 21.0757 43.7617 22.9912 43.7617 26.3441C43.7617 29.697 45.6775 31.6133 48.5522 31.6133H61.4218C64.296 31.6133 66.2123 29.697 66.2123 26.3441Z" fill="white"/>
<path fill-rule="evenodd" clip-rule="evenodd" d="M41.2352 73.7794C44.1092 73.7794 46.0254 71.8635 46.0254 68.5102C46.0257 65.1573 44.1086 63.2417 41.2352 63.2417H39.7219C36.8479 63.2417 34.9316 65.1573 34.9316 68.5102C34.9316 71.8633 36.8474 73.7794 39.7219 73.7794H41.2352Z" fill="white"/>
</svg>
