<svg width="103" height="16" viewBox="0 0 103 16" fill="none" xmlns="http://www.w3.org/2000/svg">
<path fill-rule="evenodd" clip-rule="evenodd" d="M5.80337 4.69676C7.22878 4.69676 8.2469 5.68192 8.2469 7.06063V9.03063C8.2469 10.4093 7.22878 11.3941 5.80337 11.3941H4.47985V4.69676H5.80337ZM12.8285 7.06063C12.8285 3.71202 10.1815 1.15137 5.80337 1.15137H2.23987C0.814356 1.15137 0 1.93933 0 3.12084V12.97C0 14.1516 0.814356 14.9396 2.23987 14.9396H5.80337C10.1815 14.9396 12.8285 12.3792 12.8285 9.03063V7.06063Z" fill="white"/>
<path fill-rule="evenodd" clip-rule="evenodd" d="M19.4468 2.924C19.4468 1.74238 18.6321 0.954102 17.2067 0.954102C15.7813 0.954102 14.9668 1.74238 14.9668 2.924V13.1668C14.9668 14.3488 15.7812 15.1367 17.2067 15.1367C18.6321 15.1367 19.4468 14.3488 19.4468 13.1668V2.924Z" fill="white"/>
<path fill-rule="evenodd" clip-rule="evenodd" d="M21.585 9.42413C21.585 12.7728 24.2321 15.3335 28.4065 15.3335C32.1738 15.3335 34.2101 13.3639 34.2101 11.9849C34.2101 10.9018 33.4975 10.2121 31.9702 10.2121C30.341 10.2121 30.1375 11.5909 28.4065 11.5909C27.083 11.5909 26.1666 10.7047 26.1666 9.42413V6.66659C26.1666 5.38611 27.083 4.49991 28.4065 4.49991C29.9337 4.49991 30.1375 5.87863 31.7664 5.87863C33.2937 5.87863 34.0065 5.18932 34.0065 4.10593C34.0065 2.72721 31.9702 0.757324 28.4065 0.757324C24.2321 0.757324 21.585 3.31798 21.585 6.66659V9.42413Z" fill="white"/>
<path fill-rule="evenodd" clip-rule="evenodd" d="M45.7155 5.09116C47.1408 5.09116 47.955 4.30278 47.955 3.12084C47.955 1.93933 47.1408 1.15137 45.7155 1.15137H37.9772C36.5518 1.15137 35.7373 1.93933 35.7373 3.12084V12.97C35.7373 14.1516 36.5518 14.9396 37.9772 14.9396H45.9189C47.3442 14.9396 48.1588 14.1516 48.1588 12.97C48.1589 11.7881 47.3442 11.0001 45.9189 11.0001H40.2172V9.81817H44.0859C45.3082 9.81817 46.1227 9.03063 46.1227 8.04547C46.1227 7.06063 45.3082 6.27268 44.0859 6.27268H40.2172V5.09116H45.7155Z" fill="white"/>
<path fill-rule="evenodd" clip-rule="evenodd" d="M59.6636 5.09116C61.089 5.09116 61.9036 4.30278 61.9036 3.12084C61.9036 1.93933 61.089 1.15137 59.6636 1.15137H51.9255C50.5001 1.15137 49.6855 1.93933 49.6855 3.12084V13.1669C49.6855 14.3488 50.5001 15.1368 51.9255 15.1368C53.3508 15.1368 54.1654 14.3488 54.1654 13.1669V10.6061H57.22C58.6453 10.6061 59.4598 9.81817 59.4598 8.63665C59.4598 7.4543 58.6453 6.66666 57.2199 6.66666H54.1654V5.09116H59.6636Z" fill="#FFA024"/>
<path fill-rule="evenodd" clip-rule="evenodd" d="M73.2046 5.09116C74.63 5.09116 75.4446 4.30278 75.4446 3.12084C75.4446 1.93933 74.63 1.15137 73.2046 1.15137H65.4664C64.0411 1.15137 63.2266 1.93933 63.2266 3.12084V12.97C63.2266 14.1516 64.0411 14.9396 65.4664 14.9396H73.4081C74.8334 14.9396 75.648 14.1516 75.648 12.97C75.648 11.7881 74.8334 11.0001 73.4081 11.0001H67.7064V9.81817H71.5754C72.7973 9.81817 73.6119 9.03063 73.6119 8.04547C73.6119 7.06063 72.7973 6.27268 71.5754 6.27268H67.7064V5.09116H73.2046Z" fill="#FFA024"/>
<path fill-rule="evenodd" clip-rule="evenodd" d="M83.9969 10.6061C83.9969 11.0987 83.4878 11.5909 81.9605 11.5909C80.2298 11.5909 80.0259 10.2121 78.3972 10.2121C76.8699 10.2121 76.1572 10.9018 76.1572 11.9849C76.1573 13.3639 78.1937 15.3335 81.9605 15.3335C86.4403 15.3335 88.6807 13.1668 88.6807 10.6061C88.6807 6.07583 81.1464 6.66659 81.1464 5.28787C81.1464 4.89389 81.5532 4.49991 82.5717 4.49991C84.0989 4.49991 84.3024 5.87863 85.9315 5.87863C87.4588 5.87863 88.1714 5.18932 88.1714 4.10593C88.1715 2.72721 86.1354 0.757324 82.5717 0.757324C78.4988 0.757324 76.4626 2.72721 76.4626 5.28787C76.4626 10.0153 83.9969 9.42413 83.9969 10.6061Z" fill="#FFA024"/>
<path fill-rule="evenodd" clip-rule="evenodd" d="M93.0589 5.09116V13.1669C93.0589 14.3488 93.8735 15.1368 95.2992 15.1368C96.7242 15.1368 97.5391 14.3488 97.5391 13.1669L97.5392 5.09116H99.7791C101.204 5.09116 102.019 4.30278 102.019 3.12084C102.019 1.93933 101.204 1.15137 99.7791 1.15137H90.8194C89.3938 1.15137 88.5791 1.93933 88.5791 3.12084C88.5792 4.30278 89.3937 5.09116 90.8194 5.09116H93.0589Z" fill="#FFA024"/>
</svg>
